<svg width="20" height="20" viewBox="0 0 20 20" fill="none" xmlns="http://www.w3.org/2000/svg">
<path d="M11.7666 11.7667C11.5378 12.0123 11.2618 12.2093 10.9551 12.3459C10.6484 12.4826 10.3174 12.556 9.98172 12.562C9.64604 12.5679 9.31261 12.5061 9.00132 12.3804C8.69003 12.2547 8.40725 12.0675 8.16985 11.8301C7.93246 11.5927 7.74531 11.31 7.61957 10.9987C7.49383 10.6874 7.43208 10.3539 7.43801 10.0183C7.44393 9.68258 7.5174 9.35154 7.65404 9.04487C7.79068 8.73821 7.98769 8.46221 8.23331 8.23333M14.95 14.95C13.5255 16.0358 11.7909 16.6374 9.99998 16.6667C4.16665 16.6667 0.833313 10 0.833313 10C1.86989 8.06825 3.30759 6.38051 5.04998 5.05L14.95 14.95ZM8.24998 3.53333C8.82359 3.39907 9.41087 3.33195 9.99998 3.33333C15.8333 3.33333 19.1666 10 19.1666 10C18.6608 10.9463 18.0575 11.8373 17.3666 12.6583L8.24998 3.53333Z" stroke="#3B3B3B" stroke-width="1.5" stroke-linecap="round" stroke-linejoin="round"/>
<path d="M0.833313 0.833313L19.1666 19.1666" stroke="#3B3B3B" stroke-width="1.5" stroke-linecap="round" stroke-linejoin="round"/>
</svg>
